<?xml version="1.0" encoding="UTF-8" standalone="no"?>
<svg
   viewBox="0 0 128 128"
   width="100%"
   height="100%"
   version="1.1"
   id="svg6"
   sodipodi:docname="icon.svg"
   xmlns:inkscape="http://www.inkscape.org/namespaces/inkscape"
   xmlns:sodipodi="http://sodipodi.sourceforge.net/DTD/sodipodi-0.dtd"
   xmlns="http://www.w3.org/2000/svg"
   xmlns:svg="http://www.w3.org/2000/svg">
  <defs
     id="defs10" />
  <sodipodi:namedview
     id="namedview8"
     pagecolor="#ffffff"
     bordercolor="#000000"
     borderopacity="0.25"
     inkscape:showpageshadow="2"
     inkscape:pageopacity="0.0"
     inkscape:pagecheckerboard="0"
     inkscape:deskcolor="#d1d1d1" />
  <rect
     x="0"
     y="0"
     width="128"
     height="128"
     fill="#e495f1"
     fill-opacity="0.7"
     rx="15"
     ry="15"
     id="rect2" />
  <g
     aria-label="AP"
     id="text4"
     style="font-weight:500;font-size:85px;font-family:'Roboto Medium';text-anchor:middle;fill:#ffffff;fill-opacity:0.85">
    <path
       d="M 9.2770996,94.133614 32.104248,33.703926 h 9.421387 L 64.435791,94.133614 H 53.47876 L 48.539795,80.022285 H 25.131592 L 20.234131,94.133614 Z M 28.078369,71.596992 H 45.634521 L 36.835693,46.445625 Z"
       id="path14" />
    <path
       d="M 81.74292,71.68 V 94.133614 H 71.283936 V 33.703926 h 23.117675 q 10.500489,0 16.228029,5.437012 5.76904,5.437012 5.76904,13.779297 0,8.757324 -5.76904,13.779297 Q 104.9021,71.68 94.401611,71.68 Z m 0,-29.550781 v 21.125488 h 12.658691 q 6.101079,0 8.757329,-2.863769 2.69775,-2.86377 2.69775,-7.387696 0,-4.233398 -2.69775,-7.55371 -2.65625,-3.320313 -8.757329,-3.320313 z"
       id="path16" />
  </g>
</svg>
