<svg id="fi_8060497"
     enable-background="new 0 0 512 512"
     viewBox="0 0 512 512" xmlns="http://www.w3.org/2000/svg"><g><path d="m447.366 419.973c33.556-41.923 53.636-95.1 53.636-152.975 0-135.311-109.691-245.002-245.002-245.002s-245.002 109.691-245.002 245.002c0 63.607 24.243 121.549 63.988 165.1.002.001 256.387 50.465 372.38-12.125z" fill="#1d2e79"></path><path d="m379.847 4.759c-6.004.888-9.653 6.815-8.053 12.669 4.596 16.818 4.251 37.978-14.46 56.688-6.776 6.776-14.327 12.028-22.419 16.409-3.197 1.731-5.155 5.109-5.155 8.745 0 7.59 8.118 12.404 14.789 8.785 9.519-5.163 18.626-11.495 26.927-19.796 21.658-21.658 27.28-48.459 19.427-76.429-1.33-4.738-6.045-7.813-11.056-7.071z" fill="#94dc79"></path><path d="m399.027 157.002-.779-9.115c-2.775.2-5.599-.675-7.809-2.605l-.258-.225c-10.771-9.411-27.322-8.703-36.738 2.064-9.72 11.114-8.112 28.098 3.506 37.206 9.331 7.315 17.801 17.514 24.97 28.157 5.342 7.931 16.859 8.546 23.015 1.229 4.666-5.546 9.729-10.905 15.063-15.65-30.96-3.493-20.97-41.061-20.97-41.061z" fill="#47cb8f"></path><path d="m432.761 188.374c12.521-7.819 15.928-24.535 7.447-36.621-8.216-11.708-24.597-14.175-36.31-5.964l-.28.197c-1.941 1.361-4.209 1.992-6.453 1.926l.862 10.091s-9.97 37.494 20.878 41.049c4.447-4.054 9.089-7.701 13.856-10.678z" fill="#94dc79"></path><path d="m379.747 132.374c4.136 6.281 6.362 13.435 6.551 20.769.134 5.18 3.908 9.555 8.959 10.71 7.242 1.655 14.238-3.897 14.048-11.322-.297-11.586-3.816-22.887-10.349-32.807-22.934-34.824-69.925-44.497-104.746-21.563-42.204 27.797-53.927 84.746-26.132 126.95 2.211 3.356 5.876 5.176 9.615 5.176 2.276 0 4.58-.674 6.597-2.089 5.151-3.611 6.199-10.81 2.77-16.084-20.53-31.577-11.697-74 19.8-94.745 24.23-15.954 56.928-9.225 72.887 15.005z" fill="#d2f09e"></path><path d="m348.412 329.2c5.74 22.627 9.021 44.776 9.856 66.388 8.965 2.667 17.001 8.064 22.824 15.506 5.723 7.312 15.682 9.97 24.215 6.471 3.809-1.562 7.745-2.535 11.702-2.983-13.012-178.29-152.548-262.033-152.548-262.033l.652 3.868c42.25 61.96 69.568 118.655 83.299 172.783z" fill="#d2f09e"></path><path d="m165.246 221.067c46.489 66.431 60.527 126.343 57.107 177.081 9.994-.485 18.238-7.738 19.617-17.284 3.316-22.944 23.511-39.629 46.435-38.81-13.357-49.558-40.865-102.997-83.984-163.186-33.201-46.342-53.904-100.132-46.435-154.396 1.839-13.362 12.767-23.498 26.044-24.399l-.075-.073h-27.679c-9.443 0-18.103 5.249-22.472 13.621-14.792 28.345-20.734 60.578-16.419 92.258 4.234 31.081 16.836 70.855 47.861 115.188z" fill="#47cb8f"></path><path d="m286.399 342.03c1.351-.012 2.712.03 4.082.142 19.636 1.599 36.305 16.125 40.536 35.325 1.987 9.014 9.341 15.596 18.297 16.379 3.769.33 7.452 1.139 10.975 2.369-.793-21.82-4.078-44.188-9.876-67.045-15.051-59.333-46.417-121.744-95.892-190.801-28.756-40.139-39.91-77.261-33.155-110.336 1.23-6.021 2.978-11.406 4.912-16.101 2.35-5.705-1.923-11.962-8.094-11.962h-34.229c-14.135 0-26.042 10.468-27.97 24.472-7.469 54.265 13.234 108.055 46.435 154.396 43.113 60.179 70.619 113.61 83.979 163.162z" fill="#94dc79"></path><g><path d="m382.382 340.516c-3.739 0-7.404-1.819-9.615-5.176-19.811-30.08-11.456-70.671 18.625-90.482 25.123-16.546 59.025-9.567 75.571 15.557 6.75 10.249 9.105 22.514 6.631 34.534-2.475 12.021-9.482 22.358-19.731 29.108-5.303 3.495-12.436 2.025-15.93-3.279-3.493-5.305-2.024-12.437 3.279-15.93 5.119-3.371 8.618-8.533 9.853-14.536 1.236-6.003.06-12.128-3.311-17.247-9.57-14.532-29.182-18.569-43.712-8.998-19.489 12.836-24.902 39.134-12.066 58.623 3.493 5.305 2.025 12.436-3.279 15.93-1.949 1.282-4.144 1.896-6.315 1.896z" fill="#d2f09e"></path></g><path d="m282.333 504.176c-10.461-26.092 5.606-56.322 32.729-62.676 8.211-1.923 14.189-9.164 14.615-17.586.483-9.552 3.898-18.687 9.661-26.179 1.688-2.194 2.86-4.659 3.519-7.215-5.187-2.562-9.078-7.456-10.376-13.346-4.319-19.595-21.049-34.801-41.879-36.498-25.785-2.101-46.748 16.664-50.117 39.973-1.311 9.067-9.137 15.602-18.289 16.008-9.442.418-18.629 3.69-26.247 9.474-6.716 5.099-16.105 5.191-22.865.149-22.332-16.653-55.804-9.47-69.024 15.339-3.764 7.064-11.285 11.156-19.251 10.375-3.309-.325-6.598-.273-9.823.102 44.804 49.097 109.31 79.904 181.014 79.904 9.376 0 18.625-.538 27.727-1.564-.124-2.107-.576-4.22-1.394-6.26z" fill="#d2f09e"></path><g><path d="m128.383 476.165c.064.025.129.044.193.07 7.839 3.109 16.881.579 22.04-6.092 5.85-7.566 13.87-13.116 22.878-15.976 8.731-2.772 14.588-11.119 13.495-20.215-1.042-8.668.419-17.36 3.959-25.109-5.901 2.145-12.659 1.319-17.863-2.562-22.332-16.653-55.804-9.47-69.024 15.339-3.764 7.064-11.285 11.156-19.251 10.375-3.309-.325-6.598-.273-9.823.102 15.587 17.082 33.565 31.942 53.396 44.068z" fill="#94dc79"></path></g><path d="m404.737 416.176c-7.968 3.269-17.155.775-22.463-6.007-8.002-10.223-19.966-16.662-32.829-17.787-3.053-.267-5.895-1.283-8.366-2.856-.592 2.911-1.835 5.732-3.741 8.209-5.762 7.492-9.178 16.626-9.661 26.179-.426 8.422-6.404 15.663-14.615 17.586-27.123 6.354-43.19 36.584-32.729 62.676.844 2.106 1.298 4.289 1.404 6.463 66.89-6.987 125.773-40.872 165.629-90.667-12.498-7.789-28.446-9.613-42.629-3.796z" fill="#effcd4"></path><path d="m68.629 163.977 3.845-9.776c-2.576-.889-4.826-2.686-6.238-5.193l-.18-.319c-7.504-13.325-24.439-18.509-37.768-11.011-13.758 7.739-18.189 25.432-9.724 38.753 6.799 10.699 11.703 23.998 15.136 37.28 2.559 9.898 13.948 14.622 22.761 9.44 5.786-3.402 11.824-6.55 17.93-9.207-28.639-15.452-5.762-49.967-5.762-49.967z" fill="#47cb8f"></path><path d="m236.031 302.838c-11.108-34.262-48.019-53.105-82.283-41.994-28.616 9.278-44.35 40.108-35.073 68.724 4.199 12.951 13.639 22.764 25.214 27.861 6.2 2.73 13.394-.708 15.416-7.173 1.737-5.551-.938-11.543-6.251-13.91-5.739-2.556-10.414-7.438-12.501-13.871-5.365-16.553 3.735-34.386 20.287-39.752 22.198-7.194 46.114 5.009 53.312 27.209 1.959 6.041 8.438 9.352 14.486 7.393 6.041-1.96 9.351-8.445 7.393-14.487z" fill="#47cb8f"></path><path d="m169.783 115.515c-11.867-5.712-23.947-9.929-35.497-13.96-22.659-7.908-44.062-15.377-60.771-32.087-18.747-18.747-19.057-39.952-14.433-56.785 1.751-6.376-2.959-12.683-9.571-12.683-4.43 0-8.368 2.917-9.566 7.182-7.853 27.969-2.231 54.771 19.427 76.429 19.943 19.943 44.538 28.526 68.323 36.827 20.567 7.178 40.421 14.107 57.443 28.002-5.924-10.716-11.095-21.715-15.355-32.925z" fill="#94dc79"></path><path d="m114.097 173.266c-4.11-14.73-19.743-23.053-34.475-18.951l-.352.099c-2.929.816-5.958.41-8.494-.958l-4.329 11.005s-23.146 34.923 6.28 50.238c6.917-3.119 13.941-5.647 20.814-7.173 15.408-3.42 24.798-19.055 20.556-34.26z" fill="#94dc79"></path><g><path d="m69.04 170.018c-5.366 1.307-10.776-1.983-12.083-7.348-1.662-6.819 5.934-22.057 11.59-30.21 8.705-12.545 24.658-28.162 51.161-31.323 5.484-.654 10.46 3.263 11.113 8.746.653 5.485-3.271 10.449-8.747 11.113-34.381 4.105-44.504 36.661-45.421 39.971-.281 4.24-3.266 7.992-7.613 9.051zm7.353-12.063.001.005zm-.005-.02c.001.004.002.009.003.013-.001-.005-.001-.008-.003-.013z" fill="#d2f09e"></path></g></g></svg>
